# xmcd
#
# Track frame offsets:
#	150
#	1439
#	52347
#	55491
#	151279
#	159524
#	174248
#
# Disc length: 2335 seconds
# Revision: 0
# Processed by: cddbd v1.5.2PL0 Copyright (c) Steve Scherf et al.
# Submitted via: dBpowerAMP V12.0
#
DISCID=54091d07
DTITLE=Hale Dwoskin - The Inner Circle Retreat 03 CD 07
DYEAR=2007
DGENRE=Speech
TTITLE0=Intro Music
TTITLE1=Feelings Do Not Help You Function
TTITLE2=Sharing
TTITLE3=How to Dissolve Anger - Release on Anger - Victims vs Victimizers
TTITLE4=About Children
TTITLE5=Tinnitus
TTITLE6=Concluding Music
EXTD=
EXTT0=
EXTT1=
EXTT2=
EXTT3=
EXTT4=
EXTT5=
EXTT6=
PLAYORDER=
